<svg width="256pt" height="256pt" viewBox="0 0 256 256" xmlns="http://www.w3.org/2000/svg">
  <rect x="0" y="0" width="256" height="256" fill="#0c0a09" />
  <path fill="#991b1b" opacity="1.00" d=" M 96.66 21.89 C 97.92 20.98 99.50 21.17 100.97 21.13 C 109.56 21.25 118.16 21.00 126.75 21.28 C 134.03 23.17 141.62 24.19 148.46 27.54 C 164.63 34.78 177.43 49.06 182.84 65.93 C 189.12 84.94 185.78 106.83 173.95 123.02 C 165.29 135.29 151.93 144.03 137.45 147.79 C 126.21 150.90 114.50 149.58 103.00 149.84 C 103.00 135.87 103.01 121.89 103.01 107.92 C 110.02 107.81 117.04 108.08 124.06 107.81 C 134.75 107.10 143.98 97.70 144.39 86.97 C 145.29 75.63 136.14 64.76 124.84 63.61 C 117.58 63.21 110.29 63.60 103.02 63.43 C 102.93 49.60 103.12 35.78 102.92 21.96 C 100.83 21.99 98.74 21.94 96.66 21.89 Z" />
  <path fill="#b91c1c" opacity="1.00" d=" M 61.00 22.01 C 72.88 21.92 84.78 22.15 96.66 21.89 C 98.74 21.94 100.83 21.99 102.92 21.96 C 103.12 35.78 102.93 49.60 103.02 63.43 C 102.98 78.26 103.01 93.09 103.01 107.92 C 103.01 121.89 103.00 135.87 103.00 149.84 C 103.00 162.62 103.00 175.39 103.00 188.17 C 103.04 199.44 102.93 210.71 103.06 221.98 C 103.06 223.95 102.77 225.90 102.55 227.85 C 88.66 229.95 74.86 232.65 61.00 235.01 C 60.99 164.01 61.01 93.01 61.00 22.01 Z" />
  <path fill="#7f1d1d" opacity="1.00" d=" M 137.45 147.79 C 151.93 144.03 165.29 135.29 173.95 123.02 C 186.53 133.33 193.76 149.04 195.83 164.96 C 195.79 169.29 196.08 173.65 195.62 177.97 C 194.03 184.82 192.27 191.73 188.93 197.97 C 180.14 214.73 162.94 226.77 144.18 229.26 C 140.48 229.70 136.78 230.98 133.06 230.05 C 122.90 229.12 112.72 228.47 102.55 227.85 C 102.77 225.90 103.06 223.95 103.06 221.98 C 102.93 210.71 103.04 199.44 103.00 188.17 C 109.69 187.95 116.33 188.86 123.01 188.91 C 127.83 188.97 132.79 190.02 137.47 188.42 C 143.86 186.66 149.27 181.69 151.31 175.35 C 154.12 167.71 151.47 158.76 145.67 153.24 C 143.34 150.86 140.34 149.36 137.45 147.79 Z" />
</svg>
