<svg style="position:absolute;width:0;height:0;overflow:hidden" xmlns="http://www.w3.org/2000/svg">
  <defs>
    <symbol id="github" viewBox="0 0 530 185">
      <path d=" M 59.63 6.31 C 66.36 5.86 73.14 5.97 79.86 6.66 C 88.27 8.16 97.16 9.02 104.50 13.81 C 102.47 21.58 101.09 29.53 98.65 37.20 C 86.79 33.75 74.27 32.18 61.99 34.04 C 54.87 35.18 48.17 39.10 44.17 45.16 C 38.76 53.32 37.39 63.37 37.21 72.96 C 37.01 83.88 37.55 95.34 42.78 105.19 C 45.88 111.08 51.39 115.76 57.94 117.26 C 65.58 119.18 73.51 118.23 81.19 117.11 C 81.20 108.34 81.22 99.56 81.18 90.78 C 74.92 90.71 68.66 90.89 62.41 90.61 C 62.20 82.30 61.90 73.96 62.60 65.67 C 75.40 65.60 88.21 65.69 101.01 65.61 C 103.85 65.58 106.68 65.74 109.48 66.24 C 109.65 89.03 109.55 111.83 109.53 134.63 C 92.41 145.28 71.16 146.77 51.69 143.36 C 37.83 140.86 24.55 132.93 17.58 120.43 C 7.65 103.20 7.60 82.55 8.72 63.28 C 10.34 47.55 14.77 30.88 26.78 19.79 C 35.55 11.27 47.81 7.84 59.63 6.31 Z" />
      <path d=" M 236.52 11.56 C 245.73 11.41 254.94 11.41 264.15 11.57 C 264.78 27.80 264.31 44.06 264.40 60.31 C 277.08 60.49 289.76 60.33 302.44 60.40 C 302.60 44.15 302.22 27.89 302.64 11.64 C 311.95 11.34 321.28 11.42 330.60 11.59 C 331.03 17.05 330.81 22.53 330.85 28.00 C 330.74 66.07 331.08 104.15 330.68 142.22 C 321.36 142.59 312.01 142.46 302.69 142.30 C 302.08 123.59 302.64 104.85 302.44 86.13 C 289.76 86.33 277.09 86.17 264.41 86.22 C 264.33 104.89 264.71 123.59 264.21 142.26 C 254.95 142.51 245.67 142.57 236.40 142.22 C 235.51 135.85 235.83 129.41 235.80 123.00 C 235.80 92.33 235.79 61.67 235.80 31.00 C 235.84 24.52 235.45 17.99 236.52 11.56 Z" />
      <path d=" M 438.57 11.61 C 447.87 11.36 457.18 11.43 466.49 11.57 C 466.99 26.45 466.52 41.34 466.74 56.23 C 477.53 50.81 490.30 48.49 502.04 52.06 C 510.06 54.42 516.49 60.80 519.65 68.45 C 524.95 80.89 524.19 94.76 523.50 107.97 C 522.46 118.19 520.28 129.22 512.82 136.83 C 506.65 143.09 497.49 145.02 488.99 144.80 C 478.81 144.96 468.63 141.90 460.39 135.89 C 459.57 137.91 459.97 141.14 457.82 142.24 C 451.45 142.71 445.03 142.35 438.64 142.32 C 438.16 137.23 438.36 132.11 438.34 127.00 C 438.34 90.64 438.34 54.29 438.33 17.94 C 438.34 15.82 438.43 13.72 438.57 11.61 M 466.39 77.38 C 466.29 90.89 466.35 104.39 466.35 117.90 C 470.31 119.80 474.49 121.54 478.95 121.64 C 482.83 121.72 487.28 122.15 490.51 119.51 C 494.26 116.44 494.98 111.28 495.47 106.75 C 495.91 99.80 496.25 92.74 495.03 85.85 C 494.10 80.78 491.15 75.39 485.81 74.02 C 479.17 72.29 472.42 74.69 466.39 77.38 Z" />
      <path d=" M 132.38 15.31 C 140.16 12.23 149.73 16.56 152.52 24.45 C 156.62 33.71 149.20 45.69 139.01 45.81 C 130.17 46.98 121.62 38.85 122.23 29.99 C 121.96 23.56 126.47 17.52 132.38 15.31 Z" />
      <path d=" M 175.73 27.67 C 185.00 27.51 194.28 27.44 203.55 27.72 C 203.70 36.19 203.58 44.67 203.70 53.14 C 210.38 53.28 217.06 53.09 223.73 53.31 C 224.43 61.00 224.51 68.79 223.63 76.47 C 216.98 76.70 210.32 76.52 203.67 76.62 C 203.67 88.43 203.62 100.25 203.67 112.06 C 203.46 115.78 205.63 119.54 209.24 120.74 C 214.08 122.44 219.30 121.20 224.29 121.55 C 224.60 128.39 224.51 135.23 224.32 142.07 C 214.58 145.10 203.97 145.66 194.08 142.97 C 187.73 141.22 182.05 136.87 179.07 130.95 C 176.29 125.43 175.61 119.11 175.64 113.00 C 175.70 100.88 175.64 88.76 175.68 76.65 C 170.89 76.55 166.09 76.64 161.30 76.49 C 160.79 70.21 160.26 63.75 161.37 57.52 C 165.99 55.78 170.93 55.11 175.67 53.75 C 175.69 45.06 175.60 36.37 175.73 27.67 Z" />
      <path d=" M 123.56 53.44 C 132.91 53.01 142.28 53.14 151.63 53.36 C 152.09 77.57 151.70 101.79 151.83 126.00 C 151.76 131.43 152.16 136.90 151.29 142.28 C 142.07 142.14 132.71 143.20 123.58 141.63 C 123.34 112.24 123.39 82.83 123.56 53.44 Z" />
      <path d=" M 343.28 53.42 C 352.66 53.26 362.04 53.14 371.41 53.50 C 371.73 72.67 371.39 91.86 371.58 111.04 C 371.50 114.93 372.87 119.60 376.92 121.02 C 383.88 122.98 391.33 121.09 397.50 117.62 C 397.68 96.23 397.22 74.82 397.73 53.43 C 406.99 53.24 416.27 53.19 425.53 53.46 C 426.00 70.96 425.61 88.49 425.74 106.01 C 425.64 118.08 425.95 130.15 425.56 142.22 C 419.33 142.64 413.07 142.48 406.83 142.46 C 406.24 140.49 405.68 138.51 405.16 136.52 C 392.08 144.46 375.88 147.17 361.07 143.07 C 355.65 141.53 350.61 138.22 347.59 133.38 C 343.74 127.36 343.10 120.01 342.78 113.05 C 342.74 96.03 342.81 79.01 342.75 61.98 C 342.72 59.12 342.90 56.26 343.28 53.42 Z" />
    </symbol>
    <symbol id="google" viewBox="0 0 550 185">
      <path d=" M 10.36 47.19 C 21.17 20.69 49.47 2.60 78.09 4.18 C 94.72 4.38 110.71 11.66 122.66 23.06 C 118.13 27.48 113.73 32.05 109.16 36.44 C 99.25 26.55 84.79 21.81 70.94 23.12 C 59.01 24.06 47.50 29.57 39.34 38.33 C 28.38 49.74 23.61 66.55 26.46 82.06 C 28.83 96.09 37.52 108.92 49.76 116.20 C 68.20 127.31 94.40 125.36 109.72 109.74 C 116.21 103.56 119.16 94.68 120.36 86.00 C 105.32 86.23 90.27 86.04 75.23 86.13 C 75.24 79.81 75.21 73.50 75.25 67.19 C 96.40 67.27 117.56 67.33 138.71 67.16 C 141.53 83.81 138.59 101.92 128.99 116.01 C 120.74 127.42 108.58 136.12 94.88 139.63 C 79.14 143.63 61.99 142.77 47.08 136.09 C 30.69 128.93 17.15 115.38 10.32 98.82 C 3.43 82.53 3.45 63.47 10.36 47.19 Z" />
      <path d=" M 349.67 69.67 C 357.40 59.89 369.44 53.31 382.02 53.24 C 391.03 53.07 400.42 56.52 406.23 63.60 C 406.97 61.08 406.45 58.44 406.55 55.86 C 412.75 55.88 418.95 55.87 425.16 55.87 C 425.16 78.26 425.16 100.65 425.16 123.04 C 425.09 132.78 425.71 142.71 423.15 152.22 C 420.86 161.19 415.69 169.62 407.92 174.82 C 397.79 181.62 384.74 183.19 372.95 180.76 C 359.69 177.92 348.77 167.96 343.29 155.74 C 348.94 153.29 354.72 151.13 360.31 148.53 C 363.55 155.88 369.87 162.20 377.92 163.86 C 386.67 165.62 397.08 163.04 402.17 155.23 C 406.89 148.31 406.69 139.60 406.60 131.59 C 403.54 134.25 400.68 137.25 396.86 138.84 C 387.35 143.43 375.94 142.80 366.41 138.61 C 352.88 132.71 342.73 119.68 340.45 105.08 C 338.30 92.68 341.79 79.46 349.67 69.67 M 377.50 71.69 C 372.87 73.09 368.70 75.90 365.66 79.65 C 357.17 90.01 357.29 106.59 366.38 116.54 C 371.67 122.50 380.03 125.62 387.93 124.26 C 395.06 123.13 401.33 118.26 404.60 111.88 C 410.17 101.08 408.86 86.64 400.41 77.66 C 394.68 71.57 385.48 69.12 377.50 71.69 Z" />
      <path d=" M 436.68 9.08 C 443.00 9.25 449.34 9.22 455.67 9.10 C 455.69 52.54 455.77 95.98 455.63 139.41 C 449.30 139.28 442.97 139.34 436.64 139.37 C 436.68 95.94 436.60 52.51 436.68 9.08 Z" />
      <path d=" M 184.57 53.78 C 196.07 51.99 208.31 54.45 217.90 61.16 C 226.95 67.34 233.37 77.15 235.58 87.87 C 238.12 99.82 235.90 112.88 228.90 122.98 C 221.76 133.56 209.70 140.53 197.02 141.76 C 183.83 143.32 169.97 138.81 160.47 129.46 C 151.78 121.09 147.07 108.97 147.36 96.95 C 147.38 84.84 152.56 72.77 161.61 64.66 C 167.98 58.88 176.09 55.13 184.57 53.78 M 185.41 71.60 C 180.26 73.02 175.67 76.20 172.43 80.44 C 164.56 90.74 165.02 106.62 173.70 116.32 C 178.26 121.46 185.04 124.59 191.93 124.56 C 198.85 124.61 205.68 121.47 210.24 116.28 C 219.69 105.74 219.34 87.80 209.20 77.84 C 203.16 71.69 193.70 69.18 185.41 71.60 Z" />
      <path d=" M 476.90 64.92 C 489.96 51.73 512.73 49.03 527.91 60.10 C 536.94 66.38 542.37 76.35 546.01 86.47 C 526.16 94.68 506.34 102.94 486.46 111.07 C 490.15 118.94 498.20 124.66 507.04 124.54 C 516.32 125.21 525.13 119.90 529.99 112.18 C 534.96 115.67 540.06 118.95 545.11 122.32 C 538.12 132.72 526.65 140.18 514.13 141.63 C 500.40 143.55 485.75 138.91 476.14 128.79 C 459.50 111.81 459.91 81.50 476.90 64.92 M 497.62 72.46 C 488.41 76.45 482.81 86.42 483.18 96.33 C 496.48 90.80 509.80 85.31 523.09 79.75 C 518.81 70.51 506.21 68.14 497.62 72.46 Z" />
      <path d=" M 281.50 53.68 C 294.16 51.86 307.64 55.30 317.43 63.65 C 327.18 71.75 332.84 84.33 332.82 96.96 C 333.13 108.57 328.73 120.29 320.57 128.60 C 313.38 136.09 303.41 140.80 293.08 141.78 C 278.26 143.50 262.62 137.42 253.30 125.66 C 244.56 114.96 241.64 100.09 244.87 86.75 C 248.67 69.49 264.05 55.90 281.50 53.68 M 281.43 71.67 C 275.39 73.40 270.14 77.58 266.97 83.00 C 260.93 93.37 262.00 107.77 270.30 116.63 C 275.20 122.04 282.61 125.06 289.90 124.50 C 297.41 124.03 304.51 119.80 308.64 113.54 C 315.90 102.78 314.74 86.90 305.40 77.73 C 299.25 71.62 289.75 69.14 281.43 71.67 Z" />
    </symbol>
    <symbol id="up-to-date" viewBox="0 0 850 185">
      <path d=" M 231.91 39.14 C 234.46 39.18 237.00 39.18 239.55 39.18 C 236.22 51.45 231.20 63.19 227.22 75.26 C 223.99 88.35 218.57 100.78 214.43 113.59 C 210.68 128.22 204.55 142.09 200.07 156.49 C 197.58 156.51 195.09 156.50 192.60 156.48 C 195.11 148.07 198.99 140.09 200.74 131.45 C 205.16 117.53 211.11 104.09 214.64 89.89 C 218.25 79.72 221.91 69.56 225.38 59.34 C 226.85 52.40 229.62 45.84 231.91 39.14 Z" />
      <path d=" M 488.45 39.27 C 491.23 39.12 494.00 39.19 496.78 39.36 C 492.76 49.96 489.14 60.71 485.33 71.39 C 481.98 84.96 476.26 97.80 472.12 111.13 C 468.28 126.60 460.96 141.00 457.41 156.54 C 454.69 156.51 451.97 156.50 449.26 156.48 C 452.43 146.62 456.72 137.11 459.07 127.00 C 463.28 113.45 469.17 100.41 472.56 86.61 C 476.78 73.86 482.08 61.43 485.36 48.39 C 486.42 45.36 487.55 42.36 488.45 39.27 Z" />
      <path d=" M 374.53 52.79 C 387.07 50.40 400.95 51.83 411.57 59.36 C 418.21 63.38 422.73 69.97 426.40 76.63 C 432.12 88.48 432.55 102.65 428.03 114.96 C 425.91 120.71 422.15 125.63 418.36 130.37 C 402.74 146.44 375.17 147.89 357.32 134.72 C 350.10 128.22 342.85 120.31 341.71 110.24 C 339.75 101.97 339.76 93.27 341.70 85.00 C 342.86 74.86 350.20 66.95 357.47 60.43 C 362.57 56.82 368.39 54.06 374.53 52.79 M 377.46 66.68 C 367.24 68.95 359.75 78.19 357.00 87.94 C 354.80 98.02 355.63 109.48 362.11 117.90 C 365.32 121.83 368.96 125.80 373.91 127.46 C 383.62 131.26 395.26 129.98 403.55 123.53 C 414.78 113.47 417.96 95.94 411.49 82.39 C 408.64 77.26 405.32 71.85 399.78 69.29 C 393.04 65.51 384.89 64.82 377.46 66.68 Z" />
      <path d=" M 7.12 53.23 C 12.38 53.23 17.65 53.23 22.92 53.23 C 22.96 70.83 22.84 88.43 22.97 106.03 C 22.89 112.40 24.71 119.08 29.47 123.56 C 34.81 129.46 43.56 130.22 50.99 129.13 C 57.74 128.31 63.61 123.46 66.34 117.32 C 68.15 113.47 68.31 109.11 68.37 104.93 C 68.33 87.70 68.38 70.46 68.34 53.23 C 73.61 53.23 78.88 53.20 84.15 53.27 C 84.00 72.50 84.41 91.74 83.92 110.97 C 84.12 121.81 77.82 132.00 69.03 138.02 C 59.71 143.38 48.55 144.24 38.05 143.12 C 32.71 142.43 27.47 140.79 22.73 138.25 C 13.37 132.13 7.25 121.32 7.14 110.08 C 7.08 91.13 7.14 72.18 7.12 53.23 Z" />
      <path d=" M 108.21 53.23 C 122.05 53.28 135.89 53.12 149.73 53.31 C 157.99 53.41 165.84 57.58 170.89 64.03 C 174.93 68.67 175.32 75.17 175.87 81.01 C 175.34 86.62 175.02 92.83 171.32 97.40 C 166.54 103.75 159.12 108.30 151.06 108.64 C 141.89 108.99 132.72 108.68 123.55 108.79 C 123.52 119.78 123.54 130.77 123.54 141.76 C 118.43 141.78 113.32 141.77 108.21 141.77 C 108.23 112.26 108.24 82.75 108.21 53.23 M 123.55 67.11 C 123.52 76.43 123.52 85.75 123.55 95.07 C 131.35 94.96 139.17 95.32 146.97 94.90 C 154.06 94.42 160.61 88.38 160.29 81.01 C 160.60 73.65 154.00 67.67 146.95 67.19 C 139.15 66.98 131.35 67.14 123.55 67.11 Z" />
      <path d=" M 259.86 53.19 C 282.98 53.26 306.09 53.25 329.21 53.19 C 329.24 57.84 329.24 62.48 329.20 67.13 C 320.32 66.97 311.43 67.21 302.55 67.08 C 302.51 91.98 302.53 116.87 302.54 141.77 C 297.26 141.77 291.98 141.78 286.70 141.76 C 286.74 116.88 286.67 92.00 286.74 67.12 C 277.78 66.90 268.81 67.34 259.86 66.95 C 259.84 62.36 259.84 57.77 259.86 53.19 Z" />
      <path d=" M 522.38 53.24 C 533.93 53.23 545.49 53.21 557.05 53.24 C 567.39 53.34 577.74 56.60 585.98 62.92 C 590.20 67.06 594.49 71.32 597.23 76.64 C 600.62 82.49 601.02 89.41 601.37 96.00 C 601.40 104.71 600.76 114.02 595.56 121.38 C 591.26 127.38 586.19 133.28 579.35 136.42 C 572.53 140.15 564.73 141.83 556.99 141.78 C 545.45 141.76 533.91 141.78 522.38 141.77 C 522.39 112.26 522.39 82.75 522.38 53.24 M 537.90 67.06 C 537.89 87.43 537.88 107.79 537.91 128.16 C 548.14 127.73 558.87 129.59 568.61 125.53 C 573.62 123.69 577.21 119.49 580.42 115.42 C 590.36 101.45 586.30 79.49 571.34 70.70 C 561.02 65.20 549.06 67.69 537.90 67.06 Z" />
      <path d=" M 642.48 53.22 C 649.15 53.24 655.83 53.21 662.50 53.24 C 663.65 55.95 664.49 58.77 665.30 61.60 C 669.60 73.50 675.57 84.79 679.13 96.95 C 682.64 105.71 686.48 114.35 689.87 123.16 C 691.57 129.60 694.44 135.62 697.02 141.73 C 690.88 141.78 684.75 141.85 678.61 141.68 C 677.74 135.75 674.70 130.49 672.74 124.90 C 659.21 124.90 645.68 124.87 632.15 124.91 C 630.07 130.55 627.34 135.94 625.88 141.79 C 619.87 141.74 613.87 141.83 607.87 141.72 C 611.71 134.05 613.51 125.62 617.13 117.87 C 620.43 109.30 624.64 101.06 627.12 92.20 C 630.61 83.12 634.66 74.26 638.16 65.19 C 639.22 61.07 640.78 57.11 642.48 53.22 M 652.47 69.75 C 648.45 80.53 644.01 91.14 639.84 101.86 C 638.78 104.95 638.19 108.19 636.88 111.20 C 647.29 111.17 657.70 111.18 668.11 111.19 C 666.33 107.32 665.03 103.27 663.95 99.15 C 660.26 89.30 655.95 79.68 652.47 69.75 Z" />
      <path d=" M 697.40 53.23 C 720.64 53.24 743.87 53.19 767.11 53.25 C 767.10 57.81 767.09 62.36 767.13 66.91 C 758.14 67.16 749.14 67.17 740.15 66.98 C 740.07 91.92 740.15 116.87 740.10 141.81 C 734.88 141.75 729.66 141.78 724.45 141.77 C 724.45 116.88 724.46 91.99 724.44 67.10 C 715.43 67.07 706.42 67.21 697.41 67.03 C 697.41 62.43 697.42 57.83 697.40 53.23 Z" />
      <path d=" M 784.92 53.26 C 804.94 53.18 824.96 53.25 844.99 53.22 C 845.01 57.86 845.03 62.50 844.93 67.13 C 830.29 66.90 815.64 67.42 801.01 66.90 C 800.98 74.56 801.01 82.22 801.00 89.88 C 815.66 89.75 830.33 89.86 845.00 89.82 C 845.00 94.45 845.00 99.08 845.00 103.70 C 830.33 103.64 815.67 103.71 801.00 103.66 C 801.00 111.83 800.99 119.99 801.00 128.16 C 815.66 128.14 830.33 128.16 844.99 128.15 C 845.00 132.69 845.00 137.23 844.99 141.78 C 824.96 141.75 804.94 141.81 784.92 141.74 C 784.93 112.25 784.92 82.75 784.92 53.26 Z" />
    </symbol>
  </defs>
</svg>