<svg style="position:absolute;width:0;height:0;overflow:hidden" xmlns="http://www.w3.org/2000/svg">
  <defs>
    <symbol id="netlify" viewBox="0 0 305 305">
      <path d=" M 140.08 27.01 C 140.08 24.96 140.37 22.90 141.09 20.97 C 148.32 21.13 155.56 21.04 162.79 21.06 C 163.16 21.49 163.91 22.35 164.29 22.77 C 164.23 43.52 164.28 64.26 164.27 85.00 C 156.78 87.25 148.79 85.57 141.10 86.10 C 140.43 84.13 140.00 82.08 140.08 79.99 C 140.14 62.33 140.14 44.67 140.08 27.01 Z" />
      <path d=" M 80.21 64.28 C 80.92 64.28 82.35 64.27 83.07 64.27 C 88.54 69.68 93.93 75.18 99.49 80.50 C 101.23 82.33 103.34 83.93 104.63 86.14 C 105.07 91.02 104.69 95.93 104.80 100.83 C 104.14 101.51 103.48 102.19 102.83 102.87 C 97.79 102.85 92.74 102.83 87.70 102.90 C 81.22 96.49 74.79 90.03 68.31 83.62 C 66.86 82.37 66.14 80.59 65.57 78.82 C 70.49 74.02 75.32 69.12 80.21 64.28 Z" />
      <path d=" M 111.65 115.00 C 111.61 113.17 112.25 111.45 112.65 109.70 C 128.11 109.70 143.56 109.71 159.01 109.69 C 166.84 109.57 174.69 112.25 180.67 117.31 C 187.92 123.28 192.33 132.53 192.35 141.92 C 192.35 159.10 192.29 176.28 192.37 193.46 C 191.73 194.08 191.09 194.71 190.45 195.33 C 183.62 195.27 176.79 195.30 169.97 195.31 C 169.53 194.86 168.65 193.97 168.21 193.53 C 168.20 177.69 168.19 161.86 168.22 146.02 C 168.22 141.69 167.51 136.92 164.29 133.73 C 161.65 131.04 157.72 130.23 154.08 130.25 C 148.00 130.22 141.92 130.15 135.85 130.64 C 135.72 151.61 135.85 172.57 135.79 193.54 C 135.35 193.98 134.48 194.86 134.04 195.31 C 127.21 195.30 120.39 195.26 113.57 195.34 C 112.92 194.71 112.27 194.09 111.63 193.47 C 111.70 167.31 111.66 141.15 111.65 115.00 Z" />
      <path d=" M 2.06 141.39 C 5.89 140.00 10.04 140.51 14.03 140.44 C 36.68 140.46 59.34 140.47 81.99 140.42 C 83.96 140.39 85.90 140.75 87.74 141.44 C 87.82 148.81 87.82 156.18 87.74 163.55 C 85.93 164.26 84.01 164.60 82.06 164.58 C 57.39 164.52 32.72 164.55 8.05 164.56 C 6.01 164.64 4.00 164.25 2.07 163.61 C 2.04 156.20 2.07 148.80 2.06 141.39 Z" />
      <path d=" M 216.26 141.45 C 218.09 140.69 220.06 140.44 222.03 140.42 C 244.68 140.47 267.33 140.46 289.98 140.44 C 293.98 140.51 298.15 139.98 301.98 141.42 C 301.92 148.81 301.92 156.20 301.98 163.59 C 298.15 165.01 294.00 164.49 290.01 164.56 C 269.01 164.54 248.00 164.53 227.00 164.57 C 223.40 164.52 219.66 164.97 216.25 163.55 C 216.19 156.18 216.17 148.81 216.26 141.45 Z" />
      <path d=" M 72.33 217.37 C 77.65 212.48 82.28 206.77 87.93 202.27 C 92.89 201.91 97.87 202.24 102.83 202.14 C 103.49 202.81 104.14 203.48 104.80 204.16 C 104.80 209.12 104.80 214.08 104.80 219.04 C 97.56 226.29 90.32 233.52 83.06 240.75 C 82.34 240.74 80.90 240.72 80.18 240.70 C 75.32 235.87 70.51 230.99 65.59 226.22 C 66.35 222.33 69.80 220.09 72.33 217.37 Z" />
      <path d=" M 140.08 224.97 C 140.01 222.90 140.43 220.85 141.10 218.90 C 148.80 219.41 156.77 217.78 164.26 219.98 C 164.25 241.03 164.30 262.07 164.23 283.12 C 156.68 284.92 148.79 283.42 141.10 284.04 C 140.44 282.09 140.01 280.06 140.08 278.00 C 140.14 260.32 140.14 242.65 140.08 224.97 Z" />
    </symbol>
    <symbol id="react" viewBox="0 0 305 305">
      <path d=" M 70.27 30.25 C 75.44 23.65 83.70 19.74 92.04 19.56 C 102.38 19.19 112.27 23.12 121.18 28.01 C 132.91 34.62 143.40 43.24 153.00 52.63 C 164.39 41.56 176.95 31.32 191.48 24.67 C 201.33 20.18 212.91 17.55 223.42 21.37 C 232.36 24.51 238.79 32.47 241.75 41.27 C 248.36 61.32 244.42 82.84 239.98 102.91 C 253.55 106.66 266.89 111.74 278.88 119.21 C 287.05 124.41 294.82 130.94 299.28 139.72 C 303.02 146.98 303.59 155.83 300.53 163.43 C 297.11 172.24 290.06 179.04 282.48 184.40 C 269.65 193.27 254.87 198.88 239.95 203.15 C 244.14 221.31 247.41 240.35 243.46 258.86 C 241.35 268.32 236.39 277.84 227.63 282.66 C 217.71 288.39 205.40 286.95 195.15 282.88 C 179.06 276.43 165.34 265.33 153.00 253.37 C 141.21 264.79 128.19 275.40 113.02 281.98 C 103.07 286.29 91.25 288.48 80.98 283.97 C 72.15 280.26 66.27 271.81 63.63 262.85 C 57.93 243.26 61.71 222.57 66.01 203.10 C 50.44 198.72 35.00 192.79 21.86 183.18 C 12.44 176.30 3.91 166.24 3.52 154.04 C 2.96 142.35 10.32 132.03 19.05 125.00 C 32.69 114.03 49.37 107.66 66.03 102.86 C 62.32 86.52 59.26 69.63 61.54 52.85 C 62.57 44.79 65.12 36.67 70.27 30.25 M 84.30 34.96 C 77.46 39.52 75.18 48.15 74.25 55.87 C 72.62 70.59 75.31 85.37 78.74 99.65 C 91.83 96.61 105.17 94.62 118.55 93.46 C 126.39 82.47 134.69 71.77 143.98 61.96 C 132.65 51.24 120.37 40.89 105.69 35.12 C 98.94 32.61 90.82 30.88 84.30 34.96 M 199.59 35.39 C 185.23 41.25 173.18 51.41 162.02 61.96 C 171.32 71.76 179.61 82.48 187.46 93.46 C 200.85 94.63 214.19 96.62 227.29 99.66 C 230.84 84.49 233.74 68.72 231.39 53.14 C 230.16 46.13 227.60 38.43 221.12 34.61 C 214.40 30.84 206.35 32.81 199.59 35.39 M 135.52 92.31 C 147.15 91.58 158.83 91.59 170.46 92.30 C 164.94 85.05 159.10 78.05 153.00 71.28 C 146.90 78.06 141.05 85.06 135.52 92.31 M 125.91 105.79 C 115.61 120.79 106.60 136.66 98.59 153.00 C 106.59 169.34 115.62 185.20 125.91 200.21 C 143.95 201.49 162.04 201.47 180.08 200.21 C 190.39 185.20 199.41 169.33 207.42 152.99 C 199.39 136.66 190.39 120.78 180.07 105.78 C 162.04 104.51 143.95 104.53 125.91 105.79 M 82.32 112.04 C 85.04 120.75 88.15 129.36 91.79 137.73 C 96.98 127.32 102.87 117.27 109.19 107.51 C 100.17 108.61 91.23 110.29 82.32 112.04 M 196.81 107.51 C 203.12 117.26 209.01 127.31 214.21 137.70 C 217.86 129.34 220.98 120.75 223.66 112.03 C 214.75 110.30 205.83 108.60 196.81 107.51 M 37.10 128.43 C 30.41 132.34 23.81 136.98 19.53 143.58 C 16.78 147.72 15.46 153.10 17.31 157.87 C 19.85 164.94 25.77 170.09 31.78 174.25 C 43.22 181.98 56.35 186.63 69.43 190.74 C 73.89 177.98 78.42 165.20 84.29 153.00 C 78.43 140.80 73.88 128.03 69.45 115.26 C 58.33 118.74 47.25 122.62 37.10 128.43 M 221.71 153.00 C 227.39 165.18 232.37 177.72 236.24 190.59 C 243.41 188.79 250.38 186.22 257.19 183.36 C 266.48 179.24 275.77 174.43 282.88 167.01 C 287.09 162.53 290.68 156.37 289.22 150.00 C 287.56 143.00 282.16 137.65 276.59 133.45 C 264.67 124.68 250.54 119.64 236.54 115.27 C 232.13 128.04 227.56 140.80 221.71 153.00 M 82.32 193.96 C 91.25 195.70 100.19 197.40 109.21 198.51 C 102.87 188.76 97.01 178.70 91.79 168.30 C 88.13 176.66 85.03 185.26 82.32 193.96 M 214.20 168.30 C 209.00 178.69 203.13 188.74 196.81 198.49 C 205.83 197.39 214.77 195.71 223.68 193.96 C 220.95 185.26 217.88 176.65 214.20 168.30 M 78.69 206.34 C 75.14 221.71 72.16 237.69 74.71 253.46 C 76.01 260.46 78.77 268.22 85.49 271.71 C 92.42 275.18 100.42 272.95 107.21 270.29 C 121.22 264.35 133.03 254.40 143.98 244.04 C 134.67 234.23 126.39 223.50 118.52 212.53 C 105.13 211.39 91.80 209.35 78.69 206.34 M 187.46 212.53 C 179.61 223.52 171.31 234.23 162.02 244.04 C 169.20 250.93 176.81 257.40 185.10 262.92 C 192.70 267.79 200.94 272.17 210.02 273.35 C 215.70 274.16 221.93 272.23 225.53 267.60 C 230.24 261.64 231.52 253.81 232.13 246.45 C 232.82 232.91 230.46 219.44 227.25 206.35 C 214.17 209.39 200.84 211.38 187.46 212.53 M 135.53 213.69 C 141.05 220.94 146.90 227.94 153.00 234.72 C 159.07 227.94 164.98 221.00 170.40 213.69 C 158.79 214.42 147.14 214.42 135.53 213.69 Z" />
      <path d=" M 147.54 126.76 C 155.29 125.15 163.66 127.14 169.80 132.14 C 179.71 139.79 182.67 154.76 176.59 165.67 C 171.06 176.45 157.64 182.23 146.00 178.85 C 134.61 175.96 125.99 164.82 126.29 153.03 C 125.92 140.65 135.44 129.10 147.54 126.76 Z" />
    </symbol>
    <symbol id="typescript" viewBox="0 0 305 305">
      <path d=" M 25.60 0.00 L 278.45 0.00 C 292.09 1.40 303.62 12.91 305.00 26.57 L 305.00 278.44 C 303.62 292.09 292.10 303.59 278.45 305.00 L 25.62 305.00 C 19.33 303.70 13.18 301.00 8.63 296.37 C 3.82 291.59 0.90 285.13 0.00 278.45 L 0.00 25.63 C 1.28 19.33 3.99 13.18 8.63 8.63 C 13.18 3.99 19.32 1.31 25.60 0.00 M 226.86 142.51 C 213.95 144.31 200.64 150.04 193.36 161.35 C 188.09 168.93 187.49 178.58 188.36 187.49 C 189.33 195.80 193.76 203.49 200.04 208.95 C 209.47 217.69 222.12 221.15 233.41 226.71 C 238.61 229.43 244.21 232.52 246.96 237.97 C 248.80 242.33 247.98 248.06 244.05 251.03 C 237.57 256.11 228.75 256.22 220.90 255.73 C 209.03 255.02 198.09 249.58 188.67 242.62 C 188.44 252.73 188.47 262.86 188.66 272.98 C 201.53 278.97 215.95 280.46 229.99 280.33 C 240.39 279.77 251.10 278.51 260.50 273.69 C 269.29 269.37 276.38 261.42 278.92 251.87 C 281.20 242.24 281.09 231.57 276.43 222.64 C 272.22 214.39 264.47 208.65 256.48 204.36 C 247.75 199.50 238.02 196.69 229.48 191.46 C 226.09 189.36 222.75 186.73 221.01 183.04 C 219.60 179.37 220.17 174.84 223.01 171.98 C 227.60 167.14 234.65 166.20 240.97 165.69 C 252.73 165.50 264.32 169.00 274.40 174.97 C 274.53 165.56 274.40 156.15 274.47 146.74 C 266.70 143.54 258.32 142.36 250.01 141.66 C 242.29 141.38 234.50 141.14 226.86 142.51 M 70.03 144.88 C 69.99 152.96 69.99 161.04 70.03 169.12 C 82.74 169.25 95.45 169.13 108.16 169.17 C 108.41 205.47 108.24 241.78 108.25 278.08 C 118.44 278.26 128.63 278.23 138.82 278.10 C 138.85 241.79 138.66 205.47 138.92 169.17 C 151.60 169.15 164.29 169.22 176.97 169.14 C 177.01 161.05 177.01 152.96 176.97 144.86 C 141.32 144.84 105.67 144.80 70.03 144.88 Z" />
    </symbol>
    <symbol id="movie-db" viewBox="0 0 2334 305">
      <path d=" M 0.00 0.00 L 238.98 0.00 C 240.65 19.58 240.51 40.11 239.31 59.32 C 211.28 61.03 182.43 59.36 154.09 60.09 C 153.77 140.64 154.27 221.22 153.86 301.76 C 132.56 304.65 109.25 302.31 87.22 302.90 C 86.95 302.59 86.42 301.98 86.16 301.68 C 85.72 221.15 86.24 140.60 85.91 60.07 C 57.33 58.95 28.40 61.75 0.00 59.02 L 0.00 0.00 Z" />
      <path d=" M 326.73 0.00 L 426.96 0.00 C 451.01 65.22 472.81 131.34 496.96 196.49 C 503.90 182.10 508.15 165.99 513.83 150.88 C 531.55 100.55 549.54 50.30 567.34 0.00 L 667.10 0.00 C 669.23 97.25 667.34 194.69 668.05 292.02 C 666.52 294.71 670.55 302.26 665.91 302.96 C 644.30 303.04 622.69 303.07 601.09 302.93 C 600.87 228.95 601.06 154.96 601.01 80.97 C 605.89 75.95 599.00 74.33 598.52 77.42 C 572.73 152.48 547.69 227.81 521.65 302.78 C 504.52 303.32 487.33 302.94 470.19 302.95 C 444.49 226.93 419.74 150.54 394.66 74.31 C 394.27 74.21 393.49 74.01 393.09 73.91 C 392.81 150.23 393.17 226.58 392.93 302.91 C 370.66 303.11 348.37 303.04 326.09 302.93 C 326.37 201.97 325.08 100.92 326.73 0.00 Z" />
      <path d=" M 1623.55 0.00 L 2197.45 0.00 C 2211.22 3.62 2225.84 4.99 2239.01 10.99 C 2276.42 25.91 2307.05 56.43 2322.44 93.62 C 2329.18 107.11 2329.79 122.43 2334.00 136.53 L 2334.00 167.46 C 2333.42 168.42 2332.92 169.40 2332.48 170.40 C 2328.87 204.28 2312.33 236.34 2288.29 260.29 C 2259.99 287.22 2221.31 303.87 2182.00 303.04 C 1997.00 302.87 1812.01 303.17 1627.01 302.89 C 1612.88 301.17 1598.60 299.10 1585.28 293.81 C 1536.92 276.47 1499.49 232.73 1489.54 182.40 C 1476.76 124.97 1501.75 61.59 1550.07 28.07 C 1571.46 12.03 1597.55 4.23 1623.55 0.00 Z" />
      <path d=" M 761.07 2.09 C 801.70 1.98 842.35 1.83 882.98 2.17 C 913.22 5.40 944.41 10.28 971.03 25.92 C 994.26 38.42 1013.28 58.42 1025.03 81.98 C 1046.21 127.76 1046.37 184.80 1020.77 228.84 C 1004.82 256.14 979.13 276.99 950.11 289.12 C 930.25 297.97 908.62 301.44 887.45 305.00 L 761.00 305.00 C 761.05 204.03 760.91 103.06 761.07 2.09 M 829.26 64.14 C 828.97 64.40 828.40 64.94 828.12 65.21 C 827.92 123.71 827.90 182.24 828.13 240.75 C 828.40 241.03 828.95 241.58 829.22 241.86 C 862.26 242.22 897.56 244.37 928.02 229.04 C 982.79 201.51 985.25 110.56 931.94 80.08 C 901.42 60.81 863.70 63.38 829.26 64.14 Z" />
      <path d=" M 1136.09 2.09 C 1177.72 1.84 1219.36 2.12 1261.00 1.96 C 1287.12 2.46 1314.75 6.47 1336.04 22.93 C 1364.00 46.09 1367.55 92.33 1345.76 120.76 C 1336.84 132.33 1323.69 139.35 1310.55 144.97 C 1314.25 148.77 1320.42 147.60 1325.02 149.93 C 1341.77 156.15 1357.23 167.52 1365.07 183.96 C 1382.35 216.47 1373.83 261.57 1342.24 282.26 C 1315.86 300.71 1282.43 304.85 1251.00 304.02 C 1214.20 304.62 1177.26 302.71 1140.55 305.00 L 1136.93 305.00 C 1135.88 300.76 1136.01 296.33 1135.96 292.01 C 1136.12 195.37 1135.85 98.73 1136.09 2.09 M 1204.25 58.13 C 1202.79 58.92 1202.97 60.56 1202.96 61.97 C 1203.06 81.96 1202.90 101.95 1203.04 121.94 C 1220.35 122.06 1237.68 122.08 1255.00 121.91 C 1266.49 121.57 1278.22 117.76 1286.18 109.16 C 1295.43 96.70 1295.41 75.42 1281.27 66.70 C 1258.41 52.44 1229.58 59.78 1204.25 58.13 M 1204.23 179.14 C 1201.17 201.25 1203.90 224.45 1203.04 246.95 C 1225.02 247.02 1247.01 247.08 1269.00 246.92 C 1284.33 246.61 1300.84 237.63 1305.19 222.12 C 1310.21 207.83 1302.46 191.11 1288.32 185.66 C 1261.83 174.49 1232.07 180.62 1204.23 179.14 Z" />
    </symbol>
  </defs>
</svg>