<svg width="240pt" height="350pt" viewBox="0 0 240 350" xmlns="http://www.w3.org/2000/svg">
  <defs>
    <filter id="shadow" x="-50%" y="-50%" width="200%" height="200%">
      <feDropShadow dx="8" dy="8" stdDeviation="10" flood-color="black" flood-opacity=".5" />
    </filter>
  </defs>
  <path fill="#991b1b" filter="url(#shadow)" d=" M 132.71 201.54 C 152.53 196.35 170.52 184.37 182.51 167.70 C 195.59 179.63 205.56 195.23 209.60 212.56 C 214.97 234.21 211.33 258.16 198.89 276.78 C 189.07 292.15 173.71 303.74 156.46 309.52 C 145.57 313.48 133.80 314.36 122.30 313.72 C 109.52 312.71 96.72 312.05 83.95 310.90 C 84.07 292.93 83.95 274.95 84.01 256.98 C 97.03 257.56 110.05 258.19 123.07 258.80 C 130.50 259.11 138.14 256.74 143.69 251.70 C 151.96 244.64 155.39 232.49 152.04 222.14 C 149.39 212.62 141.74 205.19 132.71 201.54 Z" />
  <path fill="#991b1b" filter="url(#shadow)" d=" M 84.00 29.02 C 99.61 29.42 115.47 27.67 130.84 31.13 C 149.17 35.26 166.04 45.52 178.18 59.86 C 191.87 75.86 199.45 96.94 198.97 118.00 C 198.78 135.75 192.81 153.28 182.51 167.70 C 170.52 184.37 152.53 196.35 132.71 201.54 C 116.74 205.35 100.24 203.61 84.00 204.00 C 84.00 185.00 84.00 166.00 84.00 147.00 C 93.36 146.95 102.71 147.08 112.07 146.97 C 120.34 146.85 128.49 143.19 134.02 137.03 C 140.87 129.62 143.63 118.74 141.07 108.97 C 137.96 96.37 126.13 86.47 113.09 86.07 C 103.40 85.87 93.70 86.07 84.00 86.00 C 84.00 67.00 84.00 48.01 84.00 29.02 Z" />
  <path fill="#b91c1c" filter="url(#shadow)" d=" M 27.01 29.01 C 46.01 29.00 65.00 28.98 84.00 29.02 C 84.00 48.01 84.00 67.00 84.00 86.00 C 84.00 106.33 84.00 126.67 84.00 147.00 C 84.00 166.00 84.00 185.00 84.00 204.00 C 84.00 221.66 83.99 239.32 84.01 256.98 C 83.95 274.95 84.07 292.93 83.95 310.90 C 64.98 314.25 46.02 317.60 27.07 321.03 C 26.92 223.69 27.03 126.35 27.01 29.01 Z" />
</svg>