<svg width="721px" height="183px" viewBox="0 0 721 183" xmlns="http://www.w3.org/2000/svg" fill="#dc2626" opacity="0.85">
  <path d=" M 239.56 0.00 L 247.07 0.00 C 256.96 0.65 267.42 3.11 274.68 10.31 C 281.30 16.62 283.96 26.00 283.93 34.94 C 283.95 59.63 283.78 84.33 283.75 109.02 C 283.75 115.49 282.90 122.11 279.97 127.95 C 276.61 134.89 270.54 140.28 263.58 143.48 C 254.36 147.66 244.06 148.89 234.01 148.75 C 224.87 148.55 215.11 146.34 208.46 139.64 C 201.94 133.29 199.78 123.83 199.87 115.00 C 199.96 89.01 200.07 63.01 200.28 37.02 C 200.30 27.15 203.47 16.79 211.02 10.07 C 218.70 2.96 229.41 0.57 239.56 0.00 M 236.41 21.69 C 230.95 23.08 227.78 28.60 227.92 34.01 C 227.65 59.68 227.68 85.37 227.49 111.05 C 227.51 114.96 227.24 119.16 229.20 122.71 C 231.09 126.14 235.18 127.60 238.90 127.79 C 243.71 128.03 248.95 127.01 252.53 123.57 C 255.54 120.53 256.05 116.02 256.06 111.96 C 256.09 85.98 256.30 60.00 256.31 34.02 C 256.29 30.05 255.26 25.51 251.71 23.21 C 247.23 20.30 241.40 20.27 236.41 21.69 Z" />
  <path d=" M 301.49 1.14 C 313.03 0.96 324.57 1.09 336.11 0.93 C 345.55 29.19 354.95 57.45 364.37 85.71 C 364.38 57.45 364.36 29.20 364.38 0.94 C 372.57 0.89 380.75 1.00 388.94 1.00 C 389.00 48.42 389.07 95.84 389.12 143.26 C 379.62 143.14 370.12 142.97 360.62 143.00 C 349.17 108.85 337.79 74.67 326.31 40.52 C 326.27 74.77 326.21 109.02 326.18 143.26 C 317.85 143.48 309.52 143.71 301.19 143.91 C 301.28 96.32 301.44 48.73 301.49 1.14 Z" />
  <path d=" M 408.62 1.05 C 432.93 1.25 457.25 1.41 481.56 1.76 C 481.52 8.72 481.66 15.68 481.61 22.64 C 466.51 22.34 451.41 22.10 436.31 21.82 C 436.33 36.22 436.42 50.61 436.44 65.00 C 448.31 65.33 460.19 65.69 472.06 66.12 C 472.03 73.05 472.17 79.98 472.12 86.91 C 460.25 86.42 448.38 85.95 436.50 85.58 C 436.59 105.32 436.62 125.07 436.70 144.81 C 427.45 144.41 418.20 144.05 408.94 143.74 C 408.84 96.18 408.78 48.62 408.62 1.05 Z" />
  <path d=" M 494.76 1.93 C 503.94 2.06 513.12 2.19 522.30 2.37 C 522.59 44.84 522.71 87.30 523.03 129.76 C 538.14 131.08 553.23 132.58 568.31 134.20 C 568.34 141.50 568.35 148.79 568.44 156.09 C 544.16 153.11 519.82 150.58 495.44 148.57 C 495.21 99.69 494.95 50.81 494.76 1.93 Z" />
  <path d=" M 102.22 4.35 C 116.82 4.06 131.42 3.54 146.02 3.35 C 155.96 3.44 166.82 4.61 174.74 11.23 C 181.87 17.27 184.27 27.02 184.28 36.01 C 184.08 45.76 185.21 56.02 181.06 65.16 C 178.24 71.81 172.66 76.90 166.27 80.07 C 172.22 81.81 177.99 85.50 180.55 91.37 C 185.47 101.90 183.89 113.79 184.06 125.03 C 184.30 133.90 182.97 143.30 186.90 151.59 C 177.52 152.52 168.16 153.56 158.81 154.64 C 157.53 151.45 156.61 148.09 156.55 144.63 C 156.22 133.11 156.67 121.59 156.50 110.08 C 156.30 104.91 155.09 98.59 149.92 96.12 C 143.41 93.09 136.10 95.14 129.26 95.44 C 129.03 116.44 129.08 137.45 128.85 158.45 C 119.68 159.70 110.53 161.04 101.37 162.40 C 101.70 109.72 101.83 57.03 102.22 4.35 M 129.63 25.84 C 129.51 41.65 129.40 57.46 129.39 73.27 C 137.44 72.36 147.12 73.62 153.22 67.11 C 158.15 60.84 156.18 52.34 156.69 44.99 C 156.71 38.76 157.38 30.43 151.06 26.85 C 144.32 23.86 136.73 26.07 129.63 25.84 Z" />
  <path d=" M 579.48 3.53 C 588.67 3.73 597.86 3.98 607.05 4.21 C 607.37 56.64 607.59 109.07 607.87 161.51 C 598.72 160.16 589.56 158.86 580.39 157.64 C 580.00 106.28 579.87 54.90 579.48 3.53 Z" />
  <path d=" M 622.73 4.63 C 632.25 4.91 641.77 5.18 651.29 5.47 C 658.35 26.04 665.30 46.64 672.16 67.28 C 679.26 47.17 686.23 27.02 693.16 6.86 C 701.67 7.16 710.17 7.48 718.68 7.80 C 709.34 34.89 699.82 61.92 690.16 88.90 C 700.67 119.92 710.88 151.03 720.72 182.27 C 711.15 180.20 701.58 178.19 692.00 176.22 C 684.64 152.91 677.19 129.63 669.53 106.41 C 662.17 126.92 654.74 147.40 647.19 167.84 C 638.63 166.37 630.06 164.96 621.49 163.58 C 631.75 137.38 641.81 111.10 651.76 84.78 C 642.33 57.98 632.62 31.27 622.73 4.63 Z" />
  <path d=" M 0.82 7.65 C 15.55 7.13 30.28 6.51 45.02 6.13 C 54.52 6.18 64.80 7.42 72.41 13.63 C 79.55 19.51 82.32 29.02 82.71 37.95 C 82.98 47.52 83.24 57.52 79.34 66.49 C 76.63 73.05 71.31 78.26 65.09 81.57 C 71.53 83.21 77.76 86.98 80.86 93.05 C 85.98 102.52 85.29 113.60 85.19 124.01 C 85.46 134.27 83.64 145.04 77.41 153.46 C 69.91 164.02 57.35 169.49 45.00 171.96 C 30.21 174.87 15.43 177.77 0.69 180.93 C 0.75 123.17 0.77 65.41 0.82 7.65 M 28.25 30.79 C 28.28 45.61 28.13 60.44 28.19 75.26 C 35.96 74.20 45.06 75.07 51.08 69.08 C 56.49 63.11 55.07 54.42 55.32 47.02 C 55.44 41.12 54.64 33.23 48.18 30.88 C 41.70 28.98 34.87 30.83 28.25 30.79 M 28.14 99.42 C 28.04 116.66 28.03 133.89 28.00 151.13 C 33.52 150.17 39.05 149.30 44.56 148.28 C 49.36 147.38 54.26 144.66 56.12 139.91 C 58.42 134.21 57.56 127.96 57.80 121.98 C 57.72 115.74 58.38 109.14 55.71 103.31 C 53.90 99.20 49.10 97.70 44.94 97.70 C 39.30 97.75 33.74 98.87 28.14 99.42 Z" />
</svg>
